<?xml version="1.0" encoding="iso-8859-1"?><!-- Generator: Adobe Illustrator 19.0.0, SVG Export Plug-In . SVG Version: 6.00 Build 0)  -->
<svg style="enable-background:new 0 0 512.001 512.001;"
    id="Layer_1"
    version="1.1"
    viewBox="0 0 512.001 512.001"
    x="0px"
    xmlns="http://www.w3.org/2000/svg"
    y="0px"
    xml:space="preserve">
<path
    style="fill:#222222;"
    d="M427.572,102.629c-20.382-51.566-70.677-88.043-129.489-88.043
	c-51.392,0-95.721,28.193-120.391,69.298c-6.805,11.334-19.393,18.729-33.585,18.729L112.481,220.81
	c0,36.394,12.605,69.83,33.635,96.253c-2.227,38.712-8.276,76.402-17.823,112.672c-0.906,3.448-3.947,6.008-7.511,6.174
	c-3.166,0.141-6.315,0.523-9.431,1.155c-8.592,1.745-15.048,9.132-15.214,18.155c-0.174,9.522,7.794,17.108,17.266,18.064
	c5.501,0.557,11.018,0.773,16.527,0.665c15.787-0.299,29.514-10.91,34.998-25.725c19.194-51.841,31.649-106.947,36.17-164.296
	c0,0,60.399-13.993,98.081-53.735c19.875,20.565,32.605,48.334,34.167,79.228c1.263,24.828,4.603,94.508,6.157,127.022
	c0.174,3.706-2.169,6.93-5.683,8.126c-5.825,1.978-11.558,4.288-17.175,6.938c-5.451,2.576-9.132,7.761-9.705,13.76
	c-0.008,0.083-0.017,0.166-0.025,0.249c-0.831,8.741,5.642,16.643,14.366,17.665c19.202,2.235,38.712,1.097,57.574-3.44
	L427.572,102.629z" />
    <path
        style="fill:#000000;"
        d="M502.753,254.146c-3.714-2.484-7.91-7.129-7.487-12.073c0.889-10.453,2.102-20.922,3.307-31.458
	c2.476-21.595,5.035-43.897,5.16-66.963c0.15-28.991-20.673-54.89-49.348-59.169c-10.661-1.587-20.856-0.233-29.938,3.349
	c-8.068,3.182-17.1,0.133-22.784-6.415c-26.938-31.035-67.096-50.694-111.301-50.694c-45.368,0-88.392,18.779-112.672,53.145
	c-7.628,10.794-19.385,18.737-33.577,18.737l-27.752,124.471c7.104,43.008,34.034,79.294,71.06,99.286
	c-1.246,40.615-5.193,80.549-11.907,119.552c-0.665,3.889-4.013,6.897-7.96,6.897c-5.376,0-10.752,0.515-16.045,1.579
	c-8.941,1.795-15.679,9.223-16.61,18.297l-0.033,0.307c-1.005,9.805,5.16,19.078,14.674,21.637
	c11.583,3.116,23.689,3.606,35.447,1.537c7.453-1.305,13.702-6.506,16.793-13.411c25.567-57.125,42.942-118.688,50.619-183.249
	c24.47-11.949,45.592-29.672,61.546-51.425c19.801,7.644,34.541,26.074,37.042,48.741c5.409,49.124,10.312,98.754,12.555,148.991
	c0.141,3.207-1.637,6.132-4.429,7.719c-5.916,3.365-11.367,7.445-16.194,12.165c-2.609,2.551-4.354,5.924-4.944,9.531
	c-0.05,0.316-0.1,0.631-0.15,0.956c-1.637,10.794,7.063,20.474,17.964,20.931c9.988,0.415,19.992,0.266,29.963-0.407
	c11.309-0.764,20.615-9.439,22.169-20.673c6.681-48.401,10.76-97.275,12.14-146.573c0.557-19.925,2.642-39.792,5.899-59.46
	c5.069-30.561,9.364-61.662,10.187-93.295c0.017-0.74-0.066-1.454-0.058-2.194c7.287-21.23,16.926-44.512,19.177-39.452
	c5.542,12.464,4.445,49.863,2.027,70.81c-1.246,10.918-2.501,21.795-3.432,32.663c-1.637,19.236,8.259,38.463,25.841,50.179
	c3.54,2.36,7.545,3.49,11.508,3.49c6.714,0,13.303-3.249,17.3-9.248C514.876,273.415,512.292,260.511,502.753,254.146z" />
    <path
        style="fill:#757575;"
        d="M22.967,167.689C11.152,146.244,4.429,121.599,4.429,95.383c0,0,12.189,24.146,32.962,36.153
	C37.383,131.545,26.889,140.427,22.967,167.689z" />
    <path
        style="fill:#222222;"
        d="M95.822,108.271c-13.103,11.408-31.201,14.217-47.711,8.791C22.369,108.595,9.016,89.75,7.919,68.645
	c-0.183-3.573-5.085-4.03-5.966-0.557c-3.407,13.369-2.468,27.935,3.689,41.479c13.943,30.669,49.398,44.778,80.391,32.588
	C115.614,130.514,109.008,96.796,95.822,108.271z" />
    <path
        style="fill:#757575;"
        d="M213.213,129.924c0-29.273,8.301-56.602,22.684-79.768l-73.353,42.501L213.213,129.924z" />
    <path
        style="fill:#222222;"
        d="M237.534,44.93c-27.536,15.189-57.532,26.398-89.198,33.12c-10.868-4.304-22.717-6.689-35.131-6.689
	c-49.855,0-90.744,38.197-95.115,86.922c-4.396,6.805-7.013,14.873-7.013,23.573c0,22.011,16.386,40.025,37.582,42.966
	c13.178,8.11,25.559,17.391,36.951,27.744c6.83,6.207,15.787,9.622,25.01,9.871c0.856,0.025,1.72,0.033,2.584,0.033
	c5.26,0,10.411-0.432,15.43-1.246c2.559-0.415,4.853-1.928,6.307-4.088c6.307-9.389,11.674-19.452,16.037-30.037
	c1.894-4.595,6.406-7.503,11.367-7.079c26.888,2.302,52.605-14.408,60.615-41.296c7.611-25.542-4.055-50.86-24.62-65.758
	c-7.187-5.202-19.028-15.704-27.661-22.227c25.924-9.497,49.497-23.905,69.514-42.152C242.162,46.775,239.877,43.634,237.534,44.93z
	" />
    <path
        style="fill:#757575;"
        d="M63.291,203.036c11.915,8.841,21.811,20.258,28.791,33.469c1.654,3.124,5.035,5.035,8.492,4.321
	c5.509-1.13,10.852-2.709,15.987-4.703c5.285-2.052,9.049-6.681,10.403-12.189c3.124-12.721,7.528-24.927,13.037-36.51
	c2.451-5.16-3.049-10.337-8.093-7.669c-16.56,8.766-35.272,13.12-54.242,12.406C72.323,195.035,67.479,198.716,63.291,203.036z" />
    <path
        style="fill:#FFFFFF;"
        d="M103.383,189.958c1.562,5.825,2.177,12.148,1.371,17.757c-0.324,2.285-1.678,4.063-1.678,4.063
	c-0.723-7.096-4.778-13.835-7.628-20.49C98.115,190.938,100.757,190.498,103.383,189.958z M74.085,214.262
	c1.064,1.18,3.889,3.349,3.889,3.349c-2.559-7.046-3.357-15.164-4.794-22.576c-2.393,1.587-4.645,3.332-6.772,5.235
	C68.177,205.43,70.603,210.407,74.085,214.262z" />
    <path
        style="fill:#757575;"
        d="M78.738,188.255c0-2.817,0.54-5.501,1.529-7.96c2.202-5.442,0.864-6.797-2.302-7.37
	c-6.963-1.271-5.783,4.778-11.566,2.941c-1.255-0.399-2.501-0.249-3.59,0.366c-3.133,1.762-3.133,4.312,1.005,7.237
	c2.95,2.086,5.55,4.645,7.32,7.827C73.977,196.389,78.738,191.503,78.738,188.255z" />
    <path
        style="fill:#FFFFFF;"
        d="M63.806,161.856c-4.229-7.644-7.761-14.192-17.383-14.192c-3.44,0-6.722,0.632-9.755,1.77
	c-3.315,1.238-5.517,4.412-5.966,7.919l-0.764,6.057c-0.233,1.82,1.479,3.216,3.241,2.692
	C43.158,163.136,53.478,161.74,63.806,161.856z" />
    <path
        style="fill:#FFFFFF;"
        d="M131.817,129.891c-4.03-3.016-15.521-7.595-27.204-1.911c-4.354,2.119-7.711,5.783-9.614,10.237
	c-2.077,4.869-3.565,9.988-4.354,15.322C106.499,151.271,121.414,143.219,131.817,129.891z" />
    <g>
</g>
</svg>
